<svg width="51" height="50" viewBox="0 0 51 50" fill="none" xmlns="http://www.w3.org/2000/svg">
<path d="M4.20677 38.7558C1.41338 34.7091 -0.0567254 29.9015 -0.00245608 24.9907C-0.00439967 21.706 0.647511 18.4536 1.91556 15.4216C3.18361 12.3895 5.04262 9.63805 7.38506 7.32632C12.1462 2.63725 18.5699 0.00514695 25.2652 7.54042e-06C31.9604 -0.00513187 38.3883 2.61711 43.1566 7.29886C45.4664 9.56496 47.3109 12.2576 48.587 15.2263C49.9078 18.2949 50.586 21.5997 50.58 24.9385C50.6294 29.86 49.1505 34.6764 46.3459 38.7284L45.7698 38.311C48.4894 34.3817 49.923 29.7109 49.8743 24.9385C49.8743 11.5879 38.8289 0.725188 25.2529 0.725188C11.677 0.725188 0.703217 11.6099 0.703217 24.9907C0.650084 29.7515 2.07496 34.4124 4.78289 38.3357L4.20677 38.7558Z" fill="#1FA4B5"/>
<path d="M45.2295 37.9925L44.6369 37.5284C47.3355 32.9538 48.0853 31.2568 48.496 25.3751C48.8544 20.1139 46.6519 14.3009 42.6053 9.82782C38.0984 4.84403 32.023 2.07617 25.5148 2.02949C22.448 1.97247 19.4008 2.52849 16.5533 3.66468C13.7059 4.80087 11.1161 6.49417 8.93685 8.6445C6.75764 10.7948 5.0333 13.3585 3.86577 16.184C2.69824 19.0096 2.1112 22.0396 2.13937 25.095C2.13937 30.3452 3.48456 33.5359 5.91858 37.5449L5.32041 37.976C2.87261 33.9423 1.4337 30.4879 1.4337 25.095C1.38714 18.8703 3.80464 12.878 8.1624 8.41644C10.3712 6.16693 13.0133 4.38491 15.9303 3.17727C18.9667 1.91681 22.2283 1.28345 25.5176 1.31555C28.9535 1.333 32.3428 2.10952 35.4411 3.58915C41.1427 6.33233 45.5861 11.1296 47.8731 17.0111C48.92 19.6904 49.3787 22.5621 49.2182 25.4328C48.7882 31.427 47.9613 33.3656 45.2295 37.9925Z" fill="#1FA4B5"/>
<path d="M24.9966 50.014C24.0249 50.02 23.0538 49.9678 22.0884 49.8575C18.7971 49.4538 15.3459 48.1495 11.8369 45.9858L12.2007 45.346C15.6243 47.4576 18.979 48.7262 22.1739 49.1188C24.4342 49.3514 26.7142 49.3155 28.966 49.0117C33.0457 48.188 34.8925 47.5427 38.1976 45.4091L38.589 46.0956C35.0193 48.3994 32.985 48.9431 29.101 49.7229C27.7423 49.924 26.3702 50.0213 24.9966 50.014Z" fill="#1FA4B5"/>
<path d="M25.2088 47.9628C19.7895 47.9628 16.7959 46.0132 14.9187 44.7968C14.0917 44.2641 13.7471 43.8522 12.9036 43.8C12.1263 43.7534 10.4917 45.6398 10.4035 45.7469L9.87421 45.2993C9.96518 45.195 11.5061 43.0806 12.854 43.0779C14.0228 43.0779 14.3315 43.5364 15.2963 44.1762C17.2617 45.4503 20.101 47.323 25.4955 47.2516C30.89 47.1802 33.5143 45.4201 35.2564 44.2559C36.2074 43.6216 36.9599 43.1191 37.7759 43.1575C39.0025 43.2207 40.0776 44.3163 40.6785 45.3185L40.0748 45.6947C39.4408 44.6321 38.5229 43.9209 37.74 43.8797C37.1529 43.8467 36.5189 44.2696 35.6423 44.8545C33.8313 46.0654 31.0913 47.8914 25.5065 47.9683L25.2088 47.9628Z" fill="#1FA4B5"/>
<path d="M24.9056 45.843C20.2195 45.843 17.2397 43.9209 15.2246 42.6111C14.202 41.9493 13.3916 41.4276 12.7768 41.4139C11.4647 41.3837 10.7839 42.1196 8.96455 44.0829L8.6255 44.4481L8.11279 43.9511L8.45184 43.5859C10.318 41.5704 11.167 40.656 12.7934 40.6889C13.6038 40.7082 14.4859 41.2793 15.6023 41.9987C17.7689 43.3991 20.7377 45.313 25.6278 45.1043C30.6199 44.8874 33.4757 43.0339 35.3667 41.8093C36.3976 41.1393 37.1446 40.656 37.8641 40.656C39.3526 40.656 40.4387 41.812 41.6957 43.1493C41.9189 43.3854 42.1505 43.6298 42.3876 43.8742L41.8969 44.3822C41.6543 44.135 41.4228 43.8879 41.1967 43.649C40.05 42.4298 39.0604 41.3782 37.8723 41.3782C37.3569 41.3782 36.6484 41.8367 35.7526 42.4189C33.8009 43.6875 30.8459 45.6013 25.6664 45.8265C25.4055 45.8375 25.1519 45.843 24.9056 45.843Z" fill="#1FA4B5"/>
<path d="M25.2722 43.6518C20.7873 43.6518 17.7414 41.7159 15.481 40.2798C14.2985 39.5302 13.3667 38.9371 12.6611 38.9233H12.617C11.0705 38.9233 9.14649 40.7521 6.97985 42.9626L6.48643 42.4326C8.79089 40.0849 10.8445 38.1435 12.6749 38.1847C13.5707 38.2039 14.5741 38.8437 15.8476 39.651C18.1659 41.1255 21.3442 43.1438 26.0716 42.8939C29.7516 42.7017 32.3207 41.0514 34.3826 39.7251C35.8242 38.797 36.9654 38.0776 38.035 38.1627C39.9039 38.3302 41.6709 40.1068 43.2338 41.672C43.5095 41.9466 43.7465 42.1882 43.9919 42.4244L43.5122 42.9735C43.2614 42.7319 43.0105 42.4793 42.7431 42.2129C41.2684 40.7301 39.5952 39.0497 37.9743 38.9179C37.1474 38.8437 36.0834 39.5192 34.7519 40.3759C32.7342 41.672 29.9666 43.4486 26.1075 43.6518C25.8235 43.6463 25.5451 43.6518 25.2722 43.6518Z" fill="#1FA4B5"/>
<path d="M25.6003 41.1805C20.9141 41.1805 18.4746 39.4203 16.5037 37.9952C15.2495 37.0891 14.1661 36.3065 12.8099 36.2433C11.5033 36.1829 9.17681 36.9435 5.49132 40.9114L4.95931 40.4363C8.02182 37.1412 10.748 35.458 12.832 35.5541C14.4004 35.6255 15.5637 36.4658 16.9116 37.4378C18.8853 38.8602 21.3414 40.6313 26.1846 40.4803C29.9308 40.3622 31.841 38.9261 33.528 37.6602C34.8622 36.658 36.1247 35.7106 38.0405 35.5541C40.3753 35.3646 43.1704 38.1847 45.4142 40.4528L45.4942 40.5324L44.987 41.0129L44.907 40.9333C42.7652 38.7696 40.0996 36.0786 38.0984 36.2433C36.3893 36.3834 35.2619 37.2291 33.9636 38.2094C32.1939 39.5384 30.1871 41.0459 26.215 41.1722L25.6003 41.1805Z" fill="#1FA4B5"/>
</svg>
