<svg width="34" height="15" viewBox="0 0 34 15" fill="none" xmlns="http://www.w3.org/2000/svg">
<path d="M20.0842 0.28751H16.0521H15.9521V0.38751V1.21128V1.31128H16.0521H17.8818L14.9979 12.5759L11.6443 0.500787L11.6239 0.427548H11.5479H10.4453H10.3692L10.3489 0.500887L7.00878 12.5756L4.12173 1.32775H6.34635H6.44635V1.22775V0.403988V0.303988H6.34635H0.386719H0.286719V0.403988V1.22775V1.32775H0.386719H2.93066L6.32123 14.3892L6.34066 14.4641H6.41802H7.54544H7.62141L7.64178 14.3909L11.0182 2.2614L14.3624 14.3962L14.3827 14.4696H14.4588H15.589H15.6664L15.6858 14.3947L19.0729 1.31128H21.2785H21.3785V1.30853H21.8621V13.5969H19.1835H19.0835V13.6969V14.5206V14.6206H19.1835H25.1432H25.2432V14.5206V13.6969V13.5969H25.1432H22.9966V7.86024H29.9636V13.5969H27.7784H27.6784V13.6969V14.5206V14.6206H27.7784H33.738H33.838V14.5206V13.6969V13.5969H33.738H31.098V1.30853H33.7105H33.8105V1.20853V0.384766V0.284766H33.7105H27.7509H27.6509V0.384766V1.20853V1.30853H27.7509H29.9636V6.67172H22.9966V1.30853H25.4106H25.5106V1.20853V0.384766V0.284766H25.4106H20.1842H20.0842V0.28751Z" fill="#1FA4B5" stroke="#1FA4B5" stroke-width="0.2"/>
</svg>
